<svg width="128" height="128" viewBox="0 0 128 128" xmlns="http://www.w3.org/2000/svg">
  <rect width="128" height="128" rx="24" fill="#000000" />
  <g transform="translate(16, 16) scale(0.75)" fill="#FFFFFF">
    <path d="m83.6 108c-.7 0-1.4-.2-1.9-.7-1.3-1.1-1.4-3-.3-4.2l2.9-3.4c1.3-2 3.5-3.2 5.8-3.1s4.3 1.4 5.4 3.5l.9 1.7c0 .1.1.2.3.2s.3-.1.3-.2l2.1-6.7c.9-2.8 3.3-4.8 6.2-5 2.9-.3 5.7 1.2 7 3.8l3 5.7c.6 1.1 1.6 1.8 2.8 2s2.4-.2 3.3-1.1c1.2-1.2 3.1-1.2 4.2 0 1.2 1.2 1.2 3.1 0 4.2-2.2 2.2-5.3 3.2-8.4 2.8-3.1-.5-5.7-2.3-7.2-5.1l-3-5.7c-.3-.6-.9-.7-1.2-.6-.3 0-.8.2-1 .8l-2.1 6.7c-.8 2.5-2.9 4.2-5.5 4.4s-5-1.2-6.2-3.5l-.9-1.7c-.1-.2-.2-.2-.2-.2-.1 0-.4.1-.6.4-.1.1-.2.3-.3.4l-3 3.5c-.7.7-1.5 1.1-2.4 1.1z" />
    <path d="m104 20h-80c-7.2 0-13 5.8-13 13v62c0 7.2 5.8 13 13 13h25c1.7 0 3-1.3 3-3s-1.3-3-3-3h-25c-3.9 0-7-3.1-7-7v-62c0-3.9 3.1-7 7-7h80c3.9 0 7 3.1 7 7v44c0 1.7 1.3 3 3 3s3-1.3 3-3v-44c0-7.2-5.8-13-13-13z" />
    <path d="m65 102c-1.7 0-3 1.3-3 3s1.3 3 3 3h4c1.7 0 3-1.3 3-3s-1.3-3-3-3z" />
    <path d="m100.6 47.8s-20.4 24.2-36.6 24.2-36.6-24.2-36.6-24.2" fill="none" stroke="#FFFFFF" stroke-width="6" stroke-linecap="round" stroke-linejoin="round" stroke-miterlimit="10" />
  </g>
</svg>
